<svg xmlns="http://www.w3.org/2000/svg" viewBox="0 0 14.21 17.87"><defs><style>.cls-1{fill:#359cff;}</style></defs><title>download</title><g id="Слой_2" data-name="Слой 2"><g id="UI"><path class="cls-1" d="M14.05,4.73,9.71.18A.52.52,0,0,0,9.31,0H2.44A2.44,2.44,0,0,0,0,2.44v13a2.44,2.44,0,0,0,2.44,2.44h9.33a2.44,2.44,0,0,0,2.44-2.44V5.11A.59.59,0,0,0,14.05,4.73Zm-3.29.93h2.35v9.77a1.34,1.34,0,0,1-1.34,1.34H2.44A1.35,1.35,0,0,1,1.1,15.43v-13A1.35,1.35,0,0,1,2.44,1.1H8.77V3.67A2,2,0,0,0,10.76,5.66Zm-.89-2V1.94l2.49,2.61h-1.6A.88.88,0,0,1,9.87,3.67Z"/><path class="cls-1" d="M3.05,14.38a.55.55,0,0,0,.55.55h7a.54.54,0,0,0,.55-.55.55.55,0,0,0-.55-.55h-7A.55.55,0,0,0,3.05,14.38Z"/><path class="cls-1" d="M7.66,6.41a.56.56,0,0,0-1.11,0v4.33L5,9.09a.61.61,0,0,0-.39-.18.47.47,0,0,0-.39.15.52.52,0,0,0-.17.39.51.51,0,0,0,.14.39L6.7,12.51h0a.58.58,0,0,0,.4.17.55.55,0,0,0,.41-.18L10,9.84a.58.58,0,0,0,.15-.39A.57.57,0,0,0,10,9.06a.53.53,0,0,0-.77,0L7.66,10.74Z"/></g></g></svg>