<svg xmlns="http://www.w3.org/2000/svg" viewBox="0 0 15.75 9.35"><defs><style>.cls-1{fill:#359cff;}</style></defs><title>link</title><g id="Слой_2" data-name="Слой 2"><g id="_1280" data-name="1280"><g id="Design"><path class="cls-1" d="M15.75,4.68a4.68,4.68,0,0,1-4.68,4.67H8.8V8.08h2.27a3.37,3.37,0,0,0,3.41-3.4,3.38,3.38,0,0,0-3.41-3.41H8.8V0h2.27A4.69,4.69,0,0,1,15.75,4.68ZM4.8,5.35H11V4H4.8ZM1.27,4.68A3.38,3.38,0,0,1,4.68,1.27H7V0H4.68a4.68,4.68,0,1,0,0,9.35H7V8.08H4.68A3.37,3.37,0,0,1,1.27,4.68Z"/></g></g></g></svg>