<svg xmlns="http://www.w3.org/2000/svg" viewBox="0 0 109.93 17.5"><defs><style>.cls-1{fill:#243141;}</style></defs><title>logo-partners</title><g id="Слой_2" data-name="Слой 2"><g id="_1280" data-name="1280"><g id="Index"><path class="cls-1" d="M7.47,0a5.51,5.51,0,0,0-2,.35A4.58,4.58,0,0,0,4,1.29,5,5,0,0,0,3,2.64a7.57,7.57,0,0,0-.43,1.14c0,.14-.07.28-.1.43L2,6.14,0,15.47H.45l8-9.32H6.07A2.58,2.58,0,0,1,8.88,3.79h1.65L13.8,0Z"/><path class="cls-1" d="M40.37,2H34.93L31.57,17.23h3.24L36,11.81h1.63l1.92,5.42h3.61l-2.24-5.68a5.25,5.25,0,0,0,4.34-5.28c0-2.65-2.1-4.3-4.89-4.3M39.09,9H36.64l.92-4.12h2.19c1.33,0,2.17.64,2.17,1.76C41.92,8,40.87,9,39.09,9"/><path class="cls-1" d="M90,2H84.52L81.15,17.23H84.4l1.19-5.42h1.62l1.92,5.42h3.62l-2.24-5.68a5.25,5.25,0,0,0,4.34-5.28C94.85,3.62,92.75,2,90,2M88.68,9H86.23l.92-4.12h2.19c1.33,0,2.17.64,2.17,1.76C91.51,8,90.46,9,88.68,9"/><path class="cls-1" d="M103.14,2H98.57L95.2,17.23h5.22c6.81,0,9.51-4.69,9.51-8.72S107.14,2,103.14,2m-2.49,12.4H99.09l2.1-9.54h1.49a3.57,3.57,0,0,1,3.91,3.91c0,3.18-2.26,5.63-5.94,5.63"/><polygon class="cls-1" points="64.94 1.97 59.73 13.41 59.59 13.41 59.36 1.97 56.32 1.97 51.02 13.41 50.9 13.41 50.77 1.97 47.36 1.97 48.16 17.23 52.05 17.23 56.94 6.62 57.14 17.23 60.96 17.23 68.62 1.97 64.94 1.97"/><path class="cls-1" d="M73.22,2,64.67,17.23h3.79l1.63-2.91h5.32l.26,2.91h3.68L77.29,2Zm1.46,3.25h.19l.51,6.24H71.55Z"/><polygon class="cls-1" points="1.14 16.73 1.03 17.23 5.37 17.23 6.61 11.58 12.06 11.58 12.76 8.15 8.49 8.15 1.14 16.73"/><polygon class="cls-1" points="13.78 1.98 10.66 5.62 14.29 5.62 15.08 1.98 13.78 1.98"/><path class="cls-1" d="M22.49,14.62c-2.54,0-4.21-1.6-4.21-4.41a5.45,5.45,0,0,1,5.2-5.61c2.56,0,4.2,1.58,4.2,4.39a5.5,5.5,0,0,1-5.19,5.63m1.19-12.9A8.62,8.62,0,0,0,15,10.55c0,4.16,3.13,7,7.34,7C28,17.5,31,13.09,31,8.63S27.8,1.72,23.68,1.72"/></g></g></g></svg>