<svg xmlns="http://www.w3.org/2000/svg" viewBox="0 0 160.45 40"><defs><style>.cls-1{font-size:14px;font-family:Axiforma-ExtraBold, Axiforma;}.cls-1,.cls-17{fill:#243141;}.cls-2{font-weight:700;}.cls-3{letter-spacing:0.02em;}.cls-4{letter-spacing:-0.01em;}.cls-5,.cls-6{font-family:Axiforma-Bold, Axiforma;}.cls-6{letter-spacing:-0.02em;}.cls-7{font-size:10px;font-family:Axiforma-Medium, Axiforma;letter-spacing:0.08em;}.cls-8{letter-spacing:0.05em;}.cls-9{letter-spacing:0.08em;}.cls-10{letter-spacing:0.08em;}.cls-11{letter-spacing:0.08em;}.cls-12{letter-spacing:0.07em;}.cls-13{letter-spacing:0.05em;}.cls-14{letter-spacing:0.08em;}.cls-15{letter-spacing:0.08em;}.cls-16{letter-spacing:0.08em;}</style></defs><title>Ресурс 22</title><g id="Слой_2" data-name="Слой 2"><g id="_1280" data-name="1280"><g id="Index"><g id="header"><text class="cls-1" transform="translate(47.94 19.3)"><tspan class="cls-2">Solo<tspan class="cls-3" x="30.97" y="0">r</tspan><tspan class="cls-4" x="37.3" y="0">u</tspan><tspan x="45.77" y="0">m</tspan><tspan class="cls-5" x="59.93" y="0" xml:space="preserve"> G</tspan><tspan class="cls-6" x="74.73" y="0">r</tspan><tspan class="cls-5" x="80.36" y="0">oup</tspan></tspan><tspan class="cls-7"><tspan x="0" y="12">г</tspan><tspan class="cls-8" x="5.17" y="12">р</tspan><tspan class="cls-9" x="12.45" y="12">у</tspan><tspan class="cls-10" x="18.89" y="12">п</tspan><tspan class="cls-11" x="25.72" y="12">п</tspan><tspan class="cls-12" x="32.56" y="12">а </tspan><tspan class="cls-13" x="43.08" y="12">к</tspan><tspan class="cls-14" x="49.13" y="12">ом</tspan><tspan class="cls-15" x="64.93" y="12">п</tspan><tspan class="cls-16" x="71.77" y="12">ани</tspan><tspan class="cls-12" x="93.42" y="12">й</tspan></tspan></text><path class="cls-17" d="M39.14,16.08a15.85,15.85,0,0,0-1.57-3.15,17,17,0,0,0-2.14-2.68A9.17,9.17,0,0,0,32.59,5a9.55,9.55,0,0,0-5.44-2.31A6.23,6.23,0,0,0,25.9,1.41,6.12,6.12,0,0,0,19.68.5a4.8,4.8,0,0,0-1.28.93A4.2,4.2,0,0,0,17.18.75a5.75,5.75,0,0,0-4.89.93,9,9,0,0,0-1.91,1.68A14.53,14.53,0,0,0,9.28,5,4.29,4.29,0,0,0,8.15,5C5.91,5.22,4.5,7.2,3.47,8.65a17.16,17.16,0,0,0-2,3.84A20.24,20.24,0,0,0,.55,24.63,20.75,20.75,0,0,0,4.6,32.71a20.09,20.09,0,0,0,6.49,5.19A19.85,19.85,0,0,0,16,39.59,20.32,20.32,0,0,0,20.1,40a19.81,19.81,0,0,0,2.83-.2,20.15,20.15,0,0,0,7.51-2.7,20.73,20.73,0,0,0,7.92-9A18,18,0,0,0,39.85,23,17.22,17.22,0,0,0,39.14,16.08ZM34,27.91l0-.15c0-.09-.07-.62-.11-1.36,0,0,0-.33,0-.82,0,0,0-.92,0-1.82a30.75,30.75,0,0,1,.7-4c.12-.54.23-1.06.32-1.53a32.85,32.85,0,0,0,.49-3.6,8,8,0,0,1,.16-1.21,6,6,0,0,1,1.32,2.24,12.18,12.18,0,0,1,.89,3.06,16.27,16.27,0,0,1-.6,7.23,17,17,0,0,1-2.92,5.46,7.6,7.6,0,0,0,0-1.18C34.22,29.78,34.06,28.41,34,27.91ZM2.73,24.21A18.38,18.38,0,0,1,4.33,11,9.5,9.5,0,0,1,7,7.54a2.2,2.2,0,0,1,1.19-.43,1,1,0,0,1,.31,0,.9.9,0,0,1,.56.62C9.84,10,9,12.35,8.26,14.46l-.07.2A40.68,40.68,0,0,0,6.78,19.3a25.47,25.47,0,0,0-.63,5.06,23.53,23.53,0,0,0,.21,3.46A16.48,16.48,0,0,0,9,34.3a19.21,19.21,0,0,1-4.66-5.81h0A18.71,18.71,0,0,1,2.73,24.21Zm5.66-1.49a23.76,23.76,0,0,1,.47-2.83,37.25,37.25,0,0,1,1.35-4.37,14.58,14.58,0,0,0,1.24-6.3l-.06-.53a6.68,6.68,0,0,1,.19-3.35,4.5,4.5,0,0,1,3.77-2.64h.07a3.29,3.29,0,0,1,2.94,2.74A6.7,6.7,0,0,1,18,8.82c-.08.28-.17.57-.24.86-.28,1.06-.58,2.13-.88,3.22C15.31,18.33,13.73,24,14.63,29.51a15.22,15.22,0,0,0,1,3.5,10.81,10.81,0,0,0,2.69,3.93,10.12,10.12,0,0,0,1.77,1.29l-.86-.05a13.9,13.9,0,0,1-4-.87,9.38,9.38,0,0,1-1.46-.73C9,33.7,7.92,27.31,8.39,22.72ZM20.49,5.17c0-.34-.1-.64-.15-.92-.13-.68-.19-1.05,0-1.39.45-.7,1.66-.71,1.68-.71a4.46,4.46,0,0,1,4,3.4c1.13,3.58.08,7.71-.85,11.36l-.24.93a49.76,49.76,0,0,0-1.61,9c-.3,4.81.71,8.09,3.09,10a6.3,6.3,0,0,1-3.77.27,6.49,6.49,0,0,1-2.91-1.71h0a8.38,8.38,0,0,1-2-3C16.26,28.78,16.7,24.88,17,22.3a63.36,63.36,0,0,1,1.93-9L19,13c.38-1.45.78-2.95,1.1-4.45l.08-.39A9.15,9.15,0,0,0,20.49,5.17Zm7.2,29.78a2.72,2.72,0,0,1-.93-.84c-1.39-1.9-1.39-4.33-1.28-6.45a41.9,41.9,0,0,1,1.2-7.77c.19-.78.38-1.55.58-2.31a38.24,38.24,0,0,0,1.46-8q0-.38,0-.76c0-.3,0-.63,0-1a5.61,5.61,0,0,1,.05-1.7c.16-.59.44-.66.53-.68l.17,0a3.74,3.74,0,0,1,2.16,1.29A7.91,7.91,0,0,1,33.51,12,23.15,23.15,0,0,1,33.07,17c-.12.66-.28,1.34-.44,2.06a25.34,25.34,0,0,0-.76,5.51,46.8,46.8,0,0,0,.38,5.32,5.9,5.9,0,0,1-.72,3.78,3.4,3.4,0,0,1-1.88,1.42A2.66,2.66,0,0,1,27.69,34.95Z"/></g></g></g></g></svg>