<svg xmlns="http://www.w3.org/2000/svg" viewBox="0 0 39.94 40"><defs><style>.cls-1{fill:#243141;}</style></defs><title>logo</title><g id="Слой_2" data-name="Слой 2"><g id="_1280" data-name="1280"><g id="Index"><path class="cls-1" d="M39.14,16.08a15.72,15.72,0,0,0-1.57-3.15,17.24,17.24,0,0,0-2.14-2.68A9.13,9.13,0,0,0,32.59,5a9.49,9.49,0,0,0-5.44-2.31A6.33,6.33,0,0,0,25.9,1.41,6.12,6.12,0,0,0,19.68.5a4.72,4.72,0,0,0-1.27.93A4.14,4.14,0,0,0,17.18.75a5.72,5.72,0,0,0-4.89.93,8.76,8.76,0,0,0-1.91,1.68A14.55,14.55,0,0,0,9.28,5,4.29,4.29,0,0,0,8.15,5C5.91,5.22,4.5,7.2,3.47,8.65a17.14,17.14,0,0,0-2,3.83A19.74,19.74,0,0,0,.27,16.67a20.22,20.22,0,0,0,.28,8A20.51,20.51,0,0,0,2.9,30.28a21.45,21.45,0,0,0,1.7,2.43A19.73,19.73,0,0,0,16,39.59a20.29,20.29,0,0,0,6.9.21,20,20,0,0,0,7.52-2.7,20.78,20.78,0,0,0,7.92-9A18.21,18.21,0,0,0,39.85,23,17.05,17.05,0,0,0,39.14,16.08ZM34,27.91l0-.15c0-.09-.07-.62-.11-1.36,0,0,0-.33,0-.82,0,0,0-.92,0-1.81a30.15,30.15,0,0,1,.7-4c.12-.54.23-1.06.32-1.52a33.2,33.2,0,0,0,.5-3.61,7.28,7.28,0,0,1,.16-1.21,6,6,0,0,1,1.32,2.24,12.35,12.35,0,0,1,.89,3.06,16.45,16.45,0,0,1-.6,7.23,17.27,17.27,0,0,1-2.92,5.46,7.74,7.74,0,0,0,0-1.18C34.22,29.78,34.06,28.41,34,27.91ZM2.73,24.21A18.42,18.42,0,0,1,4.33,11,9.59,9.59,0,0,1,7,7.54a2.14,2.14,0,0,1,1.19-.43,1,1,0,0,1,.31,0,.86.86,0,0,1,.56.62C9.84,10,9,12.35,8.26,14.46l-.07.2A42,42,0,0,0,6.78,19.3a25.55,25.55,0,0,0-.63,5.05,24.27,24.27,0,0,0,.21,3.46A16.4,16.4,0,0,0,9,34.3a19.16,19.16,0,0,1-4.66-5.81h0A18.63,18.63,0,0,1,2.73,24.21Zm5.66-1.49a26.08,26.08,0,0,1,.47-2.83,37.53,37.53,0,0,1,1.35-4.36,14.48,14.48,0,0,0,1.24-6.3l-.06-.53a6.74,6.74,0,0,1,.19-3.35,4.51,4.51,0,0,1,3.77-2.64h.07a3.3,3.3,0,0,1,2.94,2.74A6.64,6.64,0,0,1,18,8.82l-.24.85c-.28,1.06-.58,2.13-.88,3.22C15.31,18.33,13.73,24,14.63,29.51a15.06,15.06,0,0,0,1,3.5,10.78,10.78,0,0,0,2.68,3.93,9.65,9.65,0,0,0,1.77,1.29c-.25,0-.55,0-.86,0a13.9,13.9,0,0,1-4-.86,9.47,9.47,0,0,1-1.46-.73C9,33.7,7.92,27.31,8.39,22.72ZM20.49,5.17a9.09,9.09,0,0,0-.15-.91c-.13-.68-.18-1,0-1.4.44-.7,1.65-.71,1.68-.71a4.45,4.45,0,0,1,4,3.4c1.13,3.58.08,7.71-.85,11.36l-.23.93a49.38,49.38,0,0,0-1.61,9c-.3,4.81.71,8.09,3.09,10a6.34,6.34,0,0,1-3.77.27,6.44,6.44,0,0,1-2.91-1.7h0a8.41,8.41,0,0,1-2-3C16.26,28.78,16.7,24.88,17,22.3a63.71,63.71,0,0,1,1.92-9L19,13c.38-1.45.78-3,1.09-4.45l.09-.39A9.18,9.18,0,0,0,20.49,5.17ZM27.69,35a2.7,2.7,0,0,1-.92-.84c-1.39-1.9-1.39-4.32-1.29-6.45a43,43,0,0,1,1.2-7.77c.19-.77.38-1.54.58-2.31a38.35,38.35,0,0,0,1.46-8c0-.25,0-.51,0-.76s0-.63,0-1a5.6,5.6,0,0,1,.05-1.7c.15-.59.43-.66.52-.68l.18,0a3.71,3.71,0,0,1,2.15,1.29A7.9,7.9,0,0,1,33.51,12,23.11,23.11,0,0,1,33.07,17c-.13.66-.28,1.34-.44,2.06a25.26,25.26,0,0,0-.76,5.5,47.24,47.24,0,0,0,.38,5.33,5.84,5.84,0,0,1-.72,3.77,3.4,3.4,0,0,1-1.87,1.42A2.73,2.73,0,0,1,27.69,35Z"/></g></g></g></svg>